PathFileType	4	(X/Y/Z)	./resultDataOpenSim/trcMotMarkerGrf/sub10/qtm-05-04.trc
DataRate	CameraRate	NumFrames	NumMarkers	Units	OrigDataRate	OrigDataStartFrame	OrigNumFrames
250.000000	250.000000	7	24	m	250.000000	65	516
Frame#	Time	L.Toe.Tip			R.Toe.Tip			L.Ankle.Lat			R.Ankle.Lat			L.Ankle.Med			R.Ankle.Med			L.Heel			R.Heel			L.Knee.Lat			R.Knee.Lat			L.Knee.Med			R.Knee.Med			L.Thigh.Upper			R.Thigh.Upper			L.ASIS			R.ASIS			V.Sacral			L.Acromium			R.Acromium			C7			L.Elbow			R.Elbow			L.Wrist.Lat			R.Wrist.Lat
		X1	Y1	Z1	X2	Y2	Z2	X3	Y3	Z3	X4	Y4	Z4	X5	Y5	Z5	X6	Y6	Z6	X7	Y7	Z7	X8	Y8	Z8	X9	Y9	Z9	X10	Y10	Z10	X11	Y11	Z11	X12	Y12	Z12	X13	Y13	Z13	X14	Y14	Z14	X15	Y15	Z15	X16	Y16	Z16	X17	Y17	Z17	X18	Y18	Z18	X19	Y19	Z19	X20	Y20	Z20	X21	Y21	Z21	X22	Y22	Z22	X23	Y23	Z23	X24	Y24	Z24

65	0.256	-1.4537367	0.05706914	-0.13266372	-0.72752143	0.040144144	0.032180876	-1.450196	0.19434166	-0.17214757	-0.86745734	0.05228043	0.065509121	-1.425193	0.19130981	-0.09318458	-0.85062022	0.080290481	-0.016613491	-1.4886985	0.24481333	-0.12406328	-0.91885852	0.028746688	0.016015018	-1.1370548	0.40929208	-0.19802659	-0.85712186	0.45074315	0.099540384	-1.1172244	0.36373479	-0.086371206	-0.85905715	0.45969037	-0.028048116	-1.0613028	0.78066325	-0.21976134	-0.98562476	0.85055588	0.15733998	-0.98739233	0.89038095	-0.16769052	-0.94030594	0.93120923	0.065800858	-1.1620586	0.92383095	-0.01645918	-1.0322323	1.3865066	-0.1890908	-1.0477591	1.3749853	0.13195864	-1.1198585	1.4080983	-0.034356796	-1.0669932	1.0355274	-0.250304	-1.1943964	1.0672109	0.16370754	-0.82771371	0.95753634	-0.23569446	-1.1726246	0.84589644	0.25746199
66	0.26	-1.4483477	0.059617921	-0.13377961	-0.72745501	0.040047861	0.032050339	-1.4404484	0.19740912	-0.1724332	-0.86743445	0.052288663	0.065488267	-1.4134418	0.1937353	-0.094049318	-0.85049634	0.080210956	-0.016722953	-1.476596	0.24885985	-0.12409637	-0.91888241	0.028730706	0.016132044	-1.1259388	0.40876152	-0.19825454	-0.85339843	0.4506568	0.099521403	-1.105496	0.36308113	-0.08657864	-0.8557685	0.45945991	-0.028066468	-1.0545981	0.78037667	-0.2190839	-0.97917869	0.85150897	0.15788472	-0.98150464	0.89051212	-0.16715588	-0.934312	0.93180643	0.066049859	-1.1562359	0.92431853	-0.015773605	-1.0263907	1.3871327	-0.18852135	-1.0417597	1.3753669	0.13257194	-1.1141694	1.40867	-0.033641027	-1.0620241	1.0364384	-0.25014547	-1.1878667	1.0673059	0.16461387	-0.82325172	0.95668137	-0.23517579	-1.1647912	0.84578277	0.25789754
67	0.264	-1.4423241	0.06249674	-0.13497817	-0.72738802	0.039959081	0.031938751	-1.4304386	0.2003816	-0.17267855	-0.8674127	0.052297004	0.065474412	-1.4024934	0.19605064	-0.094549278	-0.85035523	0.080150373	-0.016809881	-1.4647919	0.25258361	-0.12438715	-0.91890016	0.028710555	0.016294564	-1.1147496	0.40830876	-0.19839946	-0.84995276	0.45064395	0.09955742	-1.0939017	0.36278204	-0.086612202	-0.85287618	0.45922046	-0.028056875	-1.047955	0.78020908	-0.21847057	-0.97280563	0.85244941	0.15843394	-0.97569992	0.8907246	-0.166702	-0.92833941	0.93236883	0.066297048	-1.1504853	0.92479977	-0.015060982	-1.0205654	1.3877746	-0.18801204	-1.0357086	1.3757469	0.13316089	-1.1084434	1.4093228	-0.032934232	-1.0570504	1.0373476	-0.24997798	-1.1812914	1.0673874	0.1655799	-0.81886706	0.95575953	-0.23470121	-1.1568682	0.84564432	0.25830724
68	0.268	-1.4355101	0.06567804	-0.1361781	-0.7273171	0.039873481	0.031843336	-1.4202124	0.20327456	-0.1728527	-0.86739295	0.052303443	0.065465715	-1.3921019	0.1983049	-0.09475613	-0.85018099	0.080099347	-0.016877078	-1.4532775	0.2560156	-0.12448479	-0.91891467	0.028691422	0.016454057	-1.103462	0.40795377	-0.19846933	-0.84677349	0.45064775	0.099596647	-1.082438	0.36282216	-0.086472985	-0.85031804	0.45897611	-0.028011775	-1.041385	0.78016164	-0.21789311	-0.96665957	0.85336078	0.15894542	-0.96996694	0.8910348	-0.16633375	-0.92234359	0.93290488	0.06655033	-1.1448291	0.92527667	-0.014381329	-1.0147405	1.3884405	-0.18755114	-1.029641	1.3761279	0.13374	-1.1026815	1.4100478	-0.032247842	-1.0520652	1.038255	-0.24978774	-1.174684	1.0674541	0.16656915	-0.81455776	0.95477279	-0.23427902	-1.1488521	0.84549004	0.25869759
69	0.272	-1.4278105	0.069028917	-0.13729104	-0.72724774	0.039793839	0.031755922	-1.4098365	0.20612337	-0.17294141	-0.86737776	0.052308925	0.065461774	-1.3819148	0.20057016	-0.09478806	-0.84997968	0.080053868	-0.016931924	-1.4420439	0.25917923	-0.12400366	-0.91893013	0.028677825	0.016563672	-1.09204	0.40771081	-0.19846746	-0.84393874	0.45062955	0.099653712	-1.0709964	0.3631761	-0.086212627	-0.84794574	0.45873872	-0.027933213	-1.0349135	0.78023743	-0.21731914	-0.96079455	0.85420742	0.15939329	-0.96429405	0.89145733	-0.16605284	-0.91628243	0.93342594	0.066823432	-1.1392577	0.92574874	-0.013736614	-1.0088963	1.3891377	-0.18711796	-1.023561	1.376525	0.13429986	-1.0968924	1.4108356	-0.031588698	-1.0470881	1.0391671	-0.24960502	-1.1680907	1.0674951	0.16746559	-0.8103209	0.95372603	-0.23390899	-1.1407092	0.84532597	0.25906343
70	0.276	-1.4192666	0.072348756	-0.13822369	-0.72718965	0.039724966	0.031672801	-1.399352	0.20896381	-0.17295925	-0.86736899	0.052314984	0.065460512	-1.3716634	0.20289307	-0.094743986	-0.84977041	0.08001456	-0.016984452	-1.4310831	0.26214851	-0.12314601	-0.91894966	0.028670191	0.016620072	-1.0804676	0.40758027	-0.19838749	-0.84161207	0.45058953	0.099833675	-1.0592751	0.36383396	-0.085961803	-0.84559332	0.45853098	-0.027841708	-1.0285578	0.78043787	-0.21673891	-0.9551643	0.85497155	0.15977762	-0.95867095	0.89200819	-0.1658529	-0.91018748	0.93394046	0.067125514	-1.1337525	0.92621004	-0.013111046	-1.0030436	1.3898681	-0.18670758	-1.017457	1.3769574	0.13481749	-1.0910869	1.411674	-0.030955494	-1.0421423	1.0400944	-0.24946564	-1.1615802	1.0674824	0.16808634	-0.80616288	0.95262666	-0.23359111	-1.132435	0.84517323	0.2593827
71	0.28	-1.4100461	0.075450374	-0.13887801	-0.7271504	0.039668784	0.031595792	-1.388771	0.21179572	-0.1729314	-0.86736756	0.05232267	0.065458911	-1.3612154	0.20527324	-0.094667853	-0.84957285	0.0799816	-0.017041607	-1.4203912	0.26503309	-0.12252839	-0.91897636	0.028664692	0.016650526	-1.0687715	0.40755848	-0.19823715	-0.83983868	0.45053596	0.10021468	-1.0468952	0.36480248	-0.085884064	-0.84310459	0.45838167	-0.027778516	-1.0223239	0.78075313	-0.2161664	-0.94970484	0.85566232	0.16011364	-0.95308809	0.89269824	-0.16571591	-0.90420734	0.93444898	0.067450151	-1.1282968	0.92665915	-0.012497385	-0.99721741	1.3906262	-0.18632992	-1.0113498	1.3774369	0.13529	-1.0852757	1.4125513	-0.0303457	-1.0372397	1.0410489	-0.24937795	-1.1551711	1.0673825	0.16834771	-0.80209613	0.95148519	-0.23332563	-1.1240605	0.84504963	0.25964704
